<svg width="216" height="343" viewBox="0 0 216 343" fill="none" xmlns="http://www.w3.org/2000/svg">
<path d="M91.2118 120.454L15.1003 132.16L0 24.7163L76.2506 14L91.2118 120.454Z" fill="#EC3539"/>
<path d="M185.212 106.454L109.1 118.16L94 10.7163L170.251 0L185.212 106.454Z" fill="#38AAE0"/>
<path d="M215.5 318L139.5 329.5L111 137.5L188.251 127L215.5 318Z" fill="#824C9A"/>
<path d="M103.179 334.924L77.5974 197.929L102.713 193.303L122.5 332L103.179 334.924Z" fill="#8FC647"/>
<path d="M99.6779 172.032L73.6071 176.56L67.6669 144.749L95.2506 141L99.6779 172.032Z" fill="#8FC647"/>
<path d="M47.7038 147.463L18 151.5L23.024 185.346L53.7659 180.006L47.7038 147.463Z" fill="#8FC647"/>
<path d="M26.2947 207.38L36.7157 277.585L50.6928 274.964L47.5 259L56.5 257L59.6633 273.282L70.7534 271.202L57.7844 201.579L26.2947 207.38Z" fill="#8FC647"/>
<path d="M38.1875 287.5L46.5 343.5L63.8742 340.871L52.6427 284.713L38.1875 287.5Z" fill="#8FC647"/>
<path d="M72.5402 339.56L83.1865 337.949L72.5551 280.875L61.5507 282.996L72.5402 339.56Z" fill="#8FC647"/>
</svg>
