<svg width="345" height="513" viewBox="0 0 345 513" fill="none" xmlns="http://www.w3.org/2000/svg">
<path d="M155.212 120.454L79.1003 132.16L64 24.7163L140.251 14L155.212 120.454Z" fill="#EC3539"/>
<path d="M249.212 106.454L173.1 118.16L158 10.7163L234.251 0L249.212 106.454Z" fill="#38AAE0"/>
<path d="M279.5 318L203.5 329.5L175 137.5L252.251 127L279.5 318Z" fill="#824C9A"/>
<path d="M167.179 334.924L141.597 197.929L166.713 193.303L186.5 332L167.179 334.924Z" fill="#8FC647"/>
<path d="M163.678 172.032L137.607 176.56L131.667 144.749L159.251 141L163.678 172.032Z" fill="#8FC647"/>
<path d="M111.704 147.463L82 151.5L87.024 185.346L117.766 180.006L111.704 147.463Z" fill="#8FC647"/>
<path d="M90.2947 207.38L100.716 277.585L114.693 274.964L111.5 259L120.5 257L123.663 273.282L134.753 271.202L121.784 201.579L90.2947 207.38Z" fill="#8FC647"/>
<path d="M102.188 287.5L110.5 343.5L127.874 340.871L116.643 284.713L102.188 287.5Z" fill="#8FC647"/>
<path d="M136.54 339.56L147.187 337.949L136.555 280.875L125.551 282.996L136.54 339.56Z" fill="#8FC647"/>
<path d="M25.5664 383.562H34.0664V428.188C34.1549 432.039 33.6016 435.935 32.4062 439.875C31.2552 443.771 28.931 446.759 25.4336 448.84C21.9805 450.965 18.2174 451.872 14.1445 451.562C10.7357 451.385 7.52604 450.478 4.51562 448.84V443.328C7.4375 444.169 10.5807 444.457 13.9453 444.191C21.1615 444.147 25.0352 438.591 25.5664 427.523V383.562ZM74.1094 451.562C65.0339 451.385 57.7292 447.954 52.1953 441.27C46.6615 434.585 43.9167 426.793 43.9609 417.895C43.9609 408.598 46.8607 400.562 52.6602 393.789C58.4596 387.016 66.0521 383.607 75.4375 383.562C84.6901 383.74 92.1055 387.281 97.6836 394.188C103.306 401.049 106.007 408.952 105.785 417.895C105.918 423.694 104.767 429.25 102.332 434.562C99.8971 439.875 96.1562 444.059 91.1094 447.113C86.1068 450.168 80.6615 451.651 74.7734 451.562H74.1094ZM74.7734 445.52C81.9453 445.21 87.2799 442.177 90.7773 436.422C94.319 430.667 95.957 424.491 95.6914 417.895C95.9128 411.298 94.2526 405.122 90.7109 399.367C87.2135 393.612 81.901 390.579 74.7734 390.27C67.5573 390.535 62.2669 393.767 58.9023 399.965C55.5378 406.118 53.9661 412.095 54.1875 417.895C54.0547 424.402 55.6927 430.534 59.1016 436.289C62.5104 442 67.7344 445.077 74.7734 445.52ZM112.195 439.742C117.64 443.195 123.462 444.855 129.66 444.723C137.894 444.767 142.542 441.026 143.605 433.5C142.897 427.302 138.824 423.074 131.386 420.816C126.782 419.09 122.554 416.743 118.702 413.777C114.895 410.811 112.859 406.849 112.593 401.891C112.859 396.268 114.939 391.819 118.835 388.543C122.775 385.223 128.088 383.518 134.773 383.43C141.104 383.562 146.35 385.068 150.511 387.945L150.113 393.656C145.199 391.576 140.196 390.579 135.105 390.668C128.066 390.712 123.993 393.988 122.886 400.496C122.975 404.038 124.303 406.76 126.87 408.664C129.482 410.568 132.36 412.029 135.503 413.047C140.063 414.818 144.225 417.275 147.988 420.418C151.795 423.561 153.654 427.701 153.566 432.836C153.389 439.078 150.976 443.859 146.327 447.18C141.679 450.5 135.99 452.005 129.261 451.695C121.824 451.784 116.046 449.991 111.929 446.316L112.195 439.742ZM174.383 383.562V413.711H204.664V383.562H213.762V451.297L204.797 451.496L204.664 420.02H174.383L174.449 451.496L165.418 451.297V383.562H174.383ZM235.907 383.562V424.668C235.508 429.892 236.704 434.74 239.493 439.211C242.282 443.682 246.532 445.918 252.243 445.918C258.042 446.051 262.314 443.859 265.059 439.344C267.848 434.828 268.999 429.936 268.512 424.668V383.562H278.407V423.938C278.318 442.089 269.353 451.297 251.512 451.562C246.598 451.872 241.972 450.832 237.633 448.441C233.339 446.095 230.329 442.598 228.602 437.949C226.876 433.301 226.012 428.63 226.012 423.938V383.562H235.907ZM299.495 429.184L292.589 451.562H282.96L306.467 383.562H316.893L341.331 451.562H330.839L323.866 429.184H299.495ZM321.741 424.27L311.846 390.801L301.62 424.27H321.741Z" fill="#646464"/>
<path d="M36.4453 479.902L34.1992 482.031C32.5846 480.443 30.8138 479.238 28.8867 478.418C26.9727 477.598 25.0977 477.188 23.2617 477.188C20.9961 477.188 18.8346 477.747 16.7773 478.867C14.7331 479.987 13.1445 481.497 12.0117 483.398C10.8789 485.299 10.3125 487.109 10.3125 488.828C10.3125 491.016 10.8984 493.092 12.0703 495.059C13.2422 497.012 14.8568 498.548 16.9141 499.668C18.9844 500.775 21.2435 501.328 23.6914 501.328C26.6602 501.328 29.1732 500.488 31.2305 498.809C33.3008 497.129 34.5312 494.954 34.9219 492.285H25.6836V489.492H38.1445C38.1185 493.971 36.7904 497.526 34.1602 500.156C31.543 502.786 28.0208 504.102 23.5938 504.102C18.2552 504.102 14.0234 502.279 10.8984 498.633C8.48958 495.82 7.28516 492.572 7.28516 488.887C7.28516 486.139 7.96875 483.691 9.33594 481.543C10.7161 479.395 12.6107 477.65 15.0195 476.309C17.4284 474.967 20.1497 474.297 23.1836 474.297C25.6315 474.297 27.9362 474.746 30.0977 475.645C32.2591 476.53 34.375 477.949 36.4453 479.902ZM52.4328 474.883H69.0344V477.734H55.3234V486.797H63.6828V489.609H55.3234V500.977H68.9172V503.848H52.4328V474.883ZM84.3766 503.848V474.883H85.0016L104.259 497.051V474.883H107.111V503.848H106.447L87.3844 481.953V503.848H84.3766ZM123.742 474.883H140.344V477.734H126.633V486.797H134.992V489.609H126.633V500.977H140.227V503.848H123.742V474.883ZM155.023 474.883H160.784C164.001 474.883 166.182 475.013 167.327 475.273C169.046 475.664 170.446 476.51 171.527 477.812C172.607 479.102 173.148 480.69 173.148 482.578C173.148 484.167 172.777 485.553 172.034 486.738C171.292 487.923 170.224 488.828 168.831 489.453C167.451 490.065 166.253 490.371 165.238 490.371L173.538 503.848H169.984L161.683 490.371H157.913V503.848H155.023V474.883ZM157.913 477.715V487.559L162.894 487.598C164.821 487.598 166.247 487.415 167.171 487.051C168.109 486.686 168.831 486.1 169.339 485.293C169.86 484.486 170.12 483.581 170.12 482.578C170.12 481.615 169.853 480.736 169.32 479.941C168.799 479.147 168.115 478.581 167.269 478.242C166.422 477.891 165.003 477.715 163.011 477.715H157.913ZM199.975 474.805L213.471 503.77H210.385L205.834 494.219H193.334L188.823 503.77H185.58L199.272 474.805H199.975ZM199.623 480.938L194.623 491.445H204.545L199.623 480.938ZM220.943 477.695V474.883H236.841V477.695H230.357V503.848H227.408V477.695H220.943ZM249.372 474.883H252.262V503.848H249.372V474.883ZM282.312 474.375C286.687 474.375 290.346 475.84 293.288 478.77C296.244 481.699 297.722 485.306 297.722 489.59C297.722 493.822 296.251 497.298 293.308 500.02C290.365 502.741 286.778 504.102 282.546 504.102C278.249 504.102 274.623 502.637 271.667 499.707C268.711 496.764 267.234 493.438 267.234 489.727C267.234 486.953 267.904 484.375 269.245 481.992C270.586 479.609 272.422 477.747 274.753 476.406C277.084 475.052 279.603 474.375 282.312 474.375ZM282.429 477.227C280.293 477.227 278.262 477.786 276.335 478.906C274.421 480.013 272.93 481.517 271.862 483.418C270.795 485.306 270.261 487.409 270.261 489.727C270.261 493.164 271.446 495.951 273.816 498.086C276.198 500.221 279.07 501.289 282.429 501.289C284.668 501.289 286.745 500.742 288.659 499.648C290.573 498.555 292.064 497.07 293.132 495.195C294.2 493.307 294.734 491.439 294.734 489.59C294.734 487.298 294.2 485.221 293.132 483.359C292.064 481.497 290.56 480.013 288.62 478.906C286.68 477.786 284.616 477.227 282.429 477.227ZM313.103 503.848V474.883H313.728L332.986 497.051V474.883H335.837V503.848H335.173L316.111 481.953V503.848H313.103Z" fill="#646464"/>
</svg>
