<svg width="582" height="343" viewBox="0 0 582 343" fill="none" xmlns="http://www.w3.org/2000/svg">
<path d="M91.2118 120.454L15.1003 132.16L0 24.7163L76.2506 14L91.2118 120.454Z" fill="#EC3539"/>
<path d="M185.212 106.454L109.1 118.16L94 10.7163L170.251 0L185.212 106.454Z" fill="#38AAE0"/>
<path d="M215.5 318L139.5 329.5L111 137.5L188.251 127L215.5 318Z" fill="#824C9A"/>
<path d="M103.179 334.924L77.5974 197.929L102.713 193.303L122.5 332L103.179 334.924Z" fill="#8FC647"/>
<path d="M99.6779 172.032L73.6071 176.56L67.6669 144.749L95.2506 141L99.6779 172.032Z" fill="#8FC647"/>
<path d="M47.7038 147.463L18 151.5L23.024 185.346L53.7659 180.006L47.7038 147.463Z" fill="#8FC647"/>
<path d="M26.2947 207.38L36.7157 277.585L50.6928 274.964L47.5 259L56.5 257L59.6633 273.282L70.7534 271.202L57.7844 201.579L26.2947 207.38Z" fill="#8FC647"/>
<path d="M38.1875 287.5L46.5 343.5L63.8742 340.871L52.6427 284.713L38.1875 287.5Z" fill="#8FC647"/>
<path d="M72.5402 339.56L83.1865 337.949L72.5551 280.875L61.5507 282.996L72.5402 339.56Z" fill="#8FC647"/>
<path d="M261.566 107.562H270.066V152.188C270.155 156.039 269.602 159.935 268.406 163.875C267.255 167.771 264.931 170.759 261.434 172.84C257.98 174.965 254.217 175.872 250.145 175.562C246.736 175.385 243.526 174.478 240.516 172.84V167.328C243.438 168.169 246.581 168.457 249.945 168.191C257.161 168.147 261.035 162.591 261.566 151.523V107.562ZM310.109 175.562C301.034 175.385 293.729 171.954 288.195 165.27C282.661 158.585 279.917 150.793 279.961 141.895C279.961 132.598 282.861 124.562 288.66 117.789C294.46 111.016 302.052 107.607 311.438 107.562C320.69 107.74 328.105 111.281 333.684 118.188C339.306 125.049 342.007 132.952 341.785 141.895C341.918 147.694 340.767 153.25 338.332 158.562C335.897 163.875 332.156 168.059 327.109 171.113C322.107 174.168 316.661 175.651 310.773 175.562H310.109ZM310.773 169.52C317.945 169.21 323.28 166.177 326.777 160.422C330.319 154.667 331.957 148.491 331.691 141.895C331.913 135.298 330.253 129.122 326.711 123.367C323.214 117.612 317.901 114.579 310.773 114.27C303.557 114.535 298.267 117.767 294.902 123.965C291.538 130.118 289.966 136.095 290.188 141.895C290.055 148.402 291.693 154.534 295.102 160.289C298.51 166 303.734 169.077 310.773 169.52ZM348.195 163.742C353.64 167.195 359.462 168.855 365.66 168.723C373.894 168.767 378.542 165.026 379.605 157.5C378.897 151.302 374.824 147.074 367.386 144.816C362.782 143.09 358.554 140.743 354.702 137.777C350.895 134.811 348.859 130.849 348.593 125.891C348.859 120.268 350.939 115.819 354.835 112.543C358.775 109.223 364.088 107.518 370.773 107.43C377.104 107.562 382.35 109.068 386.511 111.945L386.113 117.656C381.199 115.576 376.196 114.579 371.105 114.668C364.066 114.712 359.993 117.988 358.886 124.496C358.975 128.038 360.303 130.76 362.87 132.664C365.482 134.568 368.36 136.029 371.503 137.047C376.063 138.818 380.225 141.275 383.988 144.418C387.795 147.561 389.654 151.701 389.566 156.836C389.389 163.078 386.976 167.859 382.327 171.18C377.679 174.5 371.99 176.005 365.261 175.695C357.824 175.784 352.046 173.991 347.929 170.316L348.195 163.742ZM410.383 107.562V137.711H440.664V107.562H449.762V175.297L440.797 175.496L440.664 144.02H410.383L410.449 175.496L401.418 175.297V107.562H410.383ZM471.907 107.562V148.668C471.508 153.892 472.704 158.74 475.493 163.211C478.282 167.682 482.532 169.918 488.243 169.918C494.042 170.051 498.314 167.859 501.059 163.344C503.848 158.828 504.999 153.936 504.512 148.668V107.562H514.407V147.938C514.318 166.089 505.353 175.297 487.512 175.562C482.598 175.872 477.972 174.832 473.633 172.441C469.339 170.095 466.329 166.598 464.602 161.949C462.876 157.301 462.012 152.63 462.012 147.938V107.562H471.907ZM535.495 153.184L528.589 175.562H518.96L542.467 107.562H552.893L577.331 175.562H566.839L559.866 153.184H535.495ZM557.741 148.27L547.846 114.801L537.62 148.27H557.741Z" fill="#646464"/>
<path d="M272.445 203.902L270.199 206.031C268.585 204.443 266.814 203.238 264.887 202.418C262.973 201.598 261.098 201.188 259.262 201.188C256.996 201.188 254.835 201.747 252.777 202.867C250.733 203.987 249.145 205.497 248.012 207.398C246.879 209.299 246.312 211.109 246.312 212.828C246.312 215.016 246.898 217.092 248.07 219.059C249.242 221.012 250.857 222.548 252.914 223.668C254.984 224.775 257.243 225.328 259.691 225.328C262.66 225.328 265.173 224.488 267.23 222.809C269.301 221.129 270.531 218.954 270.922 216.285H261.684V213.492H274.145C274.118 217.971 272.79 221.526 270.16 224.156C267.543 226.786 264.021 228.102 259.594 228.102C254.255 228.102 250.023 226.279 246.898 222.633C244.49 219.82 243.285 216.572 243.285 212.887C243.285 210.139 243.969 207.691 245.336 205.543C246.716 203.395 248.611 201.65 251.02 200.309C253.428 198.967 256.15 198.297 259.184 198.297C261.632 198.297 263.936 198.746 266.098 199.645C268.259 200.53 270.375 201.949 272.445 203.902ZM288.433 198.883H305.034V201.734H291.323V210.797H299.683V213.609H291.323V224.977H304.917V227.848H288.433V198.883ZM320.377 227.848V198.883H321.002L340.259 221.051V198.883H343.111V227.848H342.447L323.384 205.953V227.848H320.377ZM359.742 198.883H376.344V201.734H362.633V210.797H370.992V213.609H362.633V224.977H376.227V227.848H359.742V198.883ZM391.023 198.883H396.784C400.001 198.883 402.182 199.013 403.327 199.273C405.046 199.664 406.446 200.51 407.527 201.812C408.607 203.102 409.148 204.69 409.148 206.578C409.148 208.167 408.777 209.553 408.034 210.738C407.292 211.923 406.224 212.828 404.831 213.453C403.451 214.065 402.253 214.371 401.238 214.371L409.538 227.848H405.984L397.683 214.371H393.913V227.848H391.023V198.883ZM393.913 201.715V211.559L398.894 211.598C400.821 211.598 402.247 211.415 403.171 211.051C404.109 210.686 404.831 210.1 405.339 209.293C405.86 208.486 406.12 207.581 406.12 206.578C406.12 205.615 405.853 204.736 405.32 203.941C404.799 203.147 404.115 202.581 403.269 202.242C402.422 201.891 401.003 201.715 399.011 201.715H393.913ZM435.975 198.805L449.471 227.77H446.385L441.834 218.219H429.334L424.823 227.77H421.58L435.272 198.805H435.975ZM435.623 204.938L430.623 215.445H440.545L435.623 204.938ZM456.943 201.695V198.883H472.841V201.695H466.357V227.848H463.408V201.695H456.943ZM485.372 198.883H488.262V227.848H485.372V198.883ZM518.312 198.375C522.687 198.375 526.346 199.84 529.288 202.77C532.244 205.699 533.722 209.306 533.722 213.59C533.722 217.822 532.251 221.298 529.308 224.02C526.365 226.741 522.778 228.102 518.546 228.102C514.249 228.102 510.623 226.637 507.667 223.707C504.711 220.764 503.234 217.438 503.234 213.727C503.234 210.953 503.904 208.375 505.245 205.992C506.586 203.609 508.422 201.747 510.753 200.406C513.084 199.052 515.603 198.375 518.312 198.375ZM518.429 201.227C516.293 201.227 514.262 201.786 512.335 202.906C510.421 204.013 508.93 205.517 507.862 207.418C506.795 209.306 506.261 211.409 506.261 213.727C506.261 217.164 507.446 219.951 509.816 222.086C512.198 224.221 515.07 225.289 518.429 225.289C520.668 225.289 522.745 224.742 524.659 223.648C526.573 222.555 528.064 221.07 529.132 219.195C530.2 217.307 530.734 215.439 530.734 213.59C530.734 211.298 530.2 209.221 529.132 207.359C528.064 205.497 526.56 204.013 524.62 202.906C522.68 201.786 520.616 201.227 518.429 201.227ZM549.103 227.848V198.883H549.728L568.986 221.051V198.883H571.837V227.848H571.173L552.111 205.953V227.848H549.103Z" fill="#646464"/>
</svg>
